<mxfile host="app.diagrams.net" modified="2022-07-04T21:48:23.124Z" agent="5.0 (Windows NT 10.0; Win64; x64) AppleWebKit/537.36 (KHTML, like Gecko) Chrome/103.0.5060.66 Safari/537.36 Edg/103.0.1264.44" etag="CwEPAbD12qk7I6lP66nq" compressed="false" version="20.0.4" type="device">
  <diagram id="EwZ4CMPolPULf1b0PJw1" name="第 1 页">
    <mxGraphModel dx="990" dy="570" grid="1" gridSize="10" guides="1" tooltips="1" connect="1" arrows="1" fold="1" page="1" pageScale="1" pageWidth="827" pageHeight="1169" math="0" shadow="0">
      <root>
        <mxCell id="0" />
        <mxCell id="1" parent="0" />
        <mxCell id="Zdh0g9Vhr2pzJOORl-4R-1" value="Date.hpp" style="rounded=0;fontFamily=sans-serif;" vertex="1" parent="1">
          <mxGeometry x="120" y="240" width="120" height="60" as="geometry" />
        </mxCell>
        <mxCell id="Zdh0g9Vhr2pzJOORl-4R-2" value="Date.cpp" style="rounded=0;fontFamily=sans-serif;" vertex="1" parent="1">
          <mxGeometry x="280" y="240" width="120" height="60" as="geometry" />
        </mxCell>
        <mxCell id="Zdh0g9Vhr2pzJOORl-4R-4" style="edgeStyle=orthogonalEdgeStyle;rounded=0;orthogonalLoop=1;jettySize=auto;fontFamily=sans-serif;" edge="1" parent="1" source="Zdh0g9Vhr2pzJOORl-4R-3" target="Zdh0g9Vhr2pzJOORl-4R-1">
          <mxGeometry relative="1" as="geometry" />
        </mxCell>
        <mxCell id="Zdh0g9Vhr2pzJOORl-4R-5" style="edgeStyle=orthogonalEdgeStyle;rounded=0;orthogonalLoop=1;jettySize=auto;fontFamily=sans-serif;" edge="1" parent="1" source="Zdh0g9Vhr2pzJOORl-4R-3" target="Zdh0g9Vhr2pzJOORl-4R-2">
          <mxGeometry relative="1" as="geometry" />
        </mxCell>
        <mxCell id="Zdh0g9Vhr2pzJOORl-4R-3" value="Date&#xa;(library)" style="rounded=0;fontFamily=sans-serif;" vertex="1" parent="1">
          <mxGeometry x="200" y="140" width="120" height="60" as="geometry" />
        </mxCell>
        <mxCell id="Zdh0g9Vhr2pzJOORl-4R-6" value="demo.cpp" style="rounded=0;fontFamily=sans-serif;" vertex="1" parent="1">
          <mxGeometry x="40" y="140" width="120" height="60" as="geometry" />
        </mxCell>
        <mxCell id="Zdh0g9Vhr2pzJOORl-4R-8" style="edgeStyle=orthogonalEdgeStyle;rounded=0;orthogonalLoop=1;jettySize=auto;fontFamily=sans-serif;" edge="1" parent="1" source="Zdh0g9Vhr2pzJOORl-4R-7" target="Zdh0g9Vhr2pzJOORl-4R-6">
          <mxGeometry relative="1" as="geometry" />
        </mxCell>
        <mxCell id="Zdh0g9Vhr2pzJOORl-4R-10" style="edgeStyle=orthogonalEdgeStyle;rounded=0;orthogonalLoop=1;jettySize=auto;fontFamily=sans-serif;" edge="1" parent="1" source="Zdh0g9Vhr2pzJOORl-4R-7" target="Zdh0g9Vhr2pzJOORl-4R-3">
          <mxGeometry relative="1" as="geometry" />
        </mxCell>
        <mxCell id="Zdh0g9Vhr2pzJOORl-4R-7" value="demo&#xa;(executable)" style="rounded=0;fontFamily=sans-serif;" vertex="1" parent="1">
          <mxGeometry x="120" y="40" width="120" height="60" as="geometry" />
        </mxCell>
      </root>
    </mxGraphModel>
  </diagram>
</mxfile>
